<mxfile host="app.diagrams.net" modified="2024-05-13T02:34:10.120Z" agent="Mozilla/5.0 (Windows NT 10.0; Win64; x64) AppleWebKit/537.36 (KHTML, like Gecko) Chrome/124.0.0.0 Safari/537.36" version="24.4.0" etag="PgrXtz9E2lfYTG2zXxPh" type="github">
  <diagram name="第 1 页" id="rSHe1EOn-pQ83vonPB0x">
    <mxGraphModel>
      <root>
        <mxCell id="0" />
        <mxCell id="1" parent="0" />
      </root>
    </mxGraphModel>
  </diagram>
</mxfile>
